<mxfile host="app.diagrams.net" modified="2023-06-09T13:23:43.011Z" agent="Mozilla/5.0 (Windows NT 10.0; Win64; x64; rv:109.0) Gecko/20100101 Firefox/113.0" version="21.3.7" etag="zPLhCX5t3uhI5ru2qmM1" type="github">
  <diagram name="Page-1" id="6c9IfGIryFSCbkAXVRVr">
    <mxGraphModel>
      <root>
        <mxCell id="0" />
        <mxCell id="1" parent="0" />
      </root>
    </mxGraphModel>
  </diagram>
</mxfile>
